# xmcd CD database file
#
# Track frame offsets:
#	150
#	20616
#	42916
#	63911
#	79208
#	99179
#	117435
#	139914
#	160883
#	181533
#
# Disc length: 2769 seconds
#
# Revision: 0
# Processed by: cddbd v1.5.1PL0 Copyright (c) Steve Scherf et al.
# Submitted via: Feurio! 1.68 - http://www.feurio.com
#
DISCID=790acf0a
DTITLE=Large - Ain't That Peculiar
DYEAR=1900
DGENRE=blues
TTITLE0=Killing Floor
TTITLE1=Love Is A Good Thing
TTITLE2=My Touch Of Madness
TTITLE3=Let's All Have A Good Time
TTITLE4=Free
TTITLE5=Ain't That Peculiar
TTITLE6=Sissy Strut
TTITLE7=Daddy's Home
TTITLE8=Eyesight To The Blind
TTITLE9=Golden Time Of Day
EXTD=
EXTT0=
EXTT1=
EXTT2=
EXTT3=
EXTT4=
EXTT5=
EXTT6=
EXTT7=
EXTT8=
EXTT9=
PLAYORDER=
